<?xml version="1.0" encoding="UTF-8" standalone="no"?>
<!DOCTYPE svg PUBLIC "-//W3C//DTD SVG 1.1//EN" "http://www.w3.org/Graphics/SVG/1.1/DTD/svg11.dtd">
<svg version="1.1" xmlns="http://www.w3.org/2000/svg" xmlns:xlink="http://www.w3.org/1999/xlink" preserveAspectRatio="xMidYMid meet" viewBox="0 0 640 640" width="640" height="640"><defs><path d="M56.25 76.25C47.59 76.25 39.49 78.38 32.15 81.89C51.26 100.99 146.79 196.53 318.75 368.49C357.29 331.45 378.7 310.87 382.99 306.75C382.99 306.75 382.99 306.75 382.99 306.74C382.99 306.74 383 306.74 383 306.74C405.48 284.25 585.37 104.38 607.86 81.89C600.52 78.38 592.41 76.25 583.75 76.25C478.25 76.25 109 76.25 56.25 76.25Z" id="b2gYrEb90r"></path><path d="M422.77 320C549.72 446.96 620.26 517.49 634.36 531.6C637.87 524.27 640 516.16 640 507.5C640 470 640 170 640 132.5C640 123.85 637.88 115.74 634.37 108.41C606.16 136.62 535.62 207.15 422.77 320Z" id="at7ZASoV7"></path><path d="M0 132.5C0 170 0 470 0 507.5C0 516.15 2.13 524.26 5.63 531.59C19.74 517.49 90.27 446.96 217.24 320L5.64 108.4C1.88 118.69 0 126.73 0 132.5Z" id="fyNvc6kq6"></path><path d="M332.01 408.26C328.35 411.92 323.55 413.75 318.75 413.75C313.96 413.75 309.16 411.92 305.5 408.26C301.38 404.14 280.8 383.56 243.75 346.51C116.79 473.47 46.25 544 32.14 558.11C39.48 561.62 47.59 563.75 56.25 563.75C109 563.75 531 563.75 583.75 563.75C592.41 563.75 600.52 561.62 607.85 558.11C593.74 544.01 523.21 473.47 396.25 346.52C357.71 383.56 336.29 404.14 332.01 408.26Z" id="loIdtIc4U"></path></defs><g><g><use xlink:href="#b2gYrEb90r" opacity="1" fill="#ffbd1b" fill-opacity="1"></use><g><use xlink:href="#b2gYrEb90r" opacity="1" fill-opacity="0" stroke="#000000" stroke-width="1" stroke-opacity="0"></use></g></g><g><use xlink:href="#at7ZASoV7" opacity="1" fill="#ffbd1b" fill-opacity="1"></use><g><use xlink:href="#at7ZASoV7" opacity="1" fill-opacity="0" stroke="#000000" stroke-width="1" stroke-opacity="0"></use></g></g><g><use xlink:href="#fyNvc6kq6" opacity="1" fill="#ffbd1b" fill-opacity="1"></use><g><use xlink:href="#fyNvc6kq6" opacity="1" fill-opacity="0" stroke="#000000" stroke-width="1" stroke-opacity="0"></use></g></g><g><use xlink:href="#loIdtIc4U" opacity="1" fill="#ffbd1b" fill-opacity="1"></use><g><use xlink:href="#loIdtIc4U" opacity="1" fill-opacity="0" stroke="#000000" stroke-width="1" stroke-opacity="0"></use></g></g></g></svg>