<?xml version="1.0" encoding="UTF-8" standalone="no"?>
<!DOCTYPE svg PUBLIC "-//W3C//DTD SVG 1.1//EN" "http://www.w3.org/Graphics/SVG/1.1/DTD/svg11.dtd">
<svg version="1.1" xmlns="http://www.w3.org/2000/svg" xmlns:xlink="http://www.w3.org/1999/xlink" preserveAspectRatio="xMidYMid meet" viewBox="0 0 640 640" width="640" height="640"><defs><path d="M218.8 630.46C234.8 633.45 240.66 623.61 240.66 615.17C240.66 607.62 240.4 587.6 240.26 561.09C151.25 580.27 132.48 518.42 132.48 518.42C117.92 481.71 96.87 471.9 96.87 471.9C67.89 452.18 99.12 452.58 99.12 452.58C131.25 454.79 148.14 485.35 148.14 485.35C176.66 533.99 223.04 519.93 241.34 511.81C244.21 491.23 252.45 477.23 261.6 469.28C190.54 461.33 115.84 433.97 115.84 312.12C115.84 277.4 128.24 249.03 148.77 226.78C145.17 218.74 134.37 186.4 151.57 142.61C151.57 142.61 178.37 134.09 239.57 175.21C265.17 168.15 292.37 164.64 319.57 164.48C346.78 164.64 373.98 168.15 399.58 175.21C460.37 134.09 487.17 142.61 487.17 142.61C504.37 186.4 493.57 218.74 490.37 226.78C510.77 249.03 523.17 277.4 523.17 312.12C523.17 434.3 448.37 461.19 377.17 469.02C388.37 478.56 398.77 498.06 398.77 527.86C398.77 570.42 398.37 604.62 398.37 614.95C398.37 623.28 403.97 633.23 420.37 630.06C548.4 588.3 640 469.04 640 328.71C640 153.08 496.72 10.67 320 10.67C143.2 10.67 0 153.08 0 328.71C0 469.26 91.67 588.44 218.8 630.46Z" id="a2Dgd8kSub"></path><path d="M218.8 630.46C234.8 633.45 240.66 623.61 240.66 615.17C240.66 607.62 240.4 587.6 240.26 561.09C151.25 580.27 132.48 518.42 132.48 518.42C117.92 481.71 96.87 471.9 96.87 471.9C67.89 452.18 99.12 452.58 99.12 452.58C131.25 454.79 148.14 485.35 148.14 485.35C176.66 533.99 223.04 519.93 241.34 511.81C244.21 491.23 252.45 477.23 261.6 469.28C190.54 461.33 115.84 433.97 115.84 312.12C115.84 277.4 128.24 249.03 148.77 226.78C145.17 218.74 134.37 186.4 151.57 142.61C151.57 142.61 178.37 134.09 239.57 175.21C265.17 168.15 292.37 164.64 319.57 164.48C346.78 164.64 373.98 168.15 399.58 175.21C460.37 134.09 487.17 142.61 487.17 142.61C504.37 186.4 493.57 218.74 490.37 226.78C510.77 249.03 523.17 277.4 523.17 312.12C523.17 434.3 448.37 461.19 377.17 469.02C388.37 478.56 398.77 498.06 398.77 527.86C398.77 570.42 398.37 604.62 398.37 614.95C398.37 623.28 403.97 633.23 420.37 630.06C548.4 588.3 640 469.04 640 328.71C640 153.08 496.72 10.67 320 10.67C143.2 10.67 0 153.08 0 328.71C0 469.26 91.67 588.44 218.8 630.46Z" id="dEoxz5JeG"></path></defs><g><g><g><use xlink:href="#a2Dgd8kSub" opacity="1" fill="#ffbd1b" fill-opacity="1"></use><g><use xlink:href="#a2Dgd8kSub" opacity="1" fill-opacity="0" stroke="#000000" stroke-width="1" stroke-opacity="0"></use></g></g><g><use xlink:href="#dEoxz5JeG" opacity="1" fill="#000000" fill-opacity="0"></use><g><use xlink:href="#dEoxz5JeG" opacity="1" fill-opacity="0" stroke="#000000" stroke-width="1" stroke-opacity="0"></use></g></g></g></g></svg>