<?xml version="1.0" encoding="UTF-8" standalone="no"?>
<!DOCTYPE svg PUBLIC "-//W3C//DTD SVG 1.1//EN" "http://www.w3.org/Graphics/SVG/1.1/DTD/svg11.dtd">
<svg version="1.1" xmlns="http://www.w3.org/2000/svg" xmlns:xlink="http://www.w3.org/1999/xlink" preserveAspectRatio="xMidYMid meet" viewBox="0 0 640 640" width="640" height="640"><defs><path d="M0.37 319.5C0.37 459.24 -24.04 599.34 103.73 632.32C143.63 642.57 497.14 642.57 536.99 632.27C590.18 618.56 633.47 575.46 639.38 500.32C640.21 489.83 640.21 149.35 639.36 138.65C633.07 58.6 583.73 12.47 518.73 3.13C503.83 0.97 500.85 0.34 424.41 0.2C153.28 0.34 93.84 -11.72 40.35 43.67C-9.92 95.82 0.37 151.21 0.37 319.5Z" id="a8dQjZ5ym"></path><path d="M96.37 165.13C81.87 202.29 83.98 250.55 83.98 319.66C83.98 380.29 82.03 437.28 96.37 474.15C131.39 564.18 224.04 555.55 320.09 555.55C412.76 555.55 508.31 565.19 543.84 474.15C558.36 436.62 556.23 389.08 556.23 319.66C556.23 227.5 561.32 168.01 516.57 123.34C471.26 78.09 409.99 83.76 320.04 83.76C223.37 83.76 131.47 75.16 96.37 165.13ZM512.36 414.9C507.32 525.02 423.37 512.93 320.17 512.93C132.01 512.93 126.6 507.56 126.6 319.55C126.6 129.36 141.52 126.38 298.98 126.22C500.85 125.95 526.54 103.54 512.36 414.9ZM417.88 193.72C417.88 209.35 430.56 222.02 446.21 222.02C461.85 222.02 474.54 209.35 474.54 193.72C474.54 178.1 461.85 165.43 446.21 165.43C430.56 165.43 417.88 178.1 417.88 193.72ZM198.88 319.66C198.88 386.55 253.17 440.77 320.14 440.77C387.12 440.77 441.39 386.55 441.39 319.66C441.39 252.76 387.12 198.51 320.14 198.51C253.17 198.51 198.88 252.76 198.88 319.66ZM320.14 398.29C216.09 398.29 215.93 241.02 320.14 241.02C424.22 241.02 424.35 398.29 320.14 398.29Z" id="bl4d4GXGQ"></path></defs><g><g><g><use xlink:href="#a8dQjZ5ym" opacity="1" fill="#ffbd1b" fill-opacity="1"></use><g><use xlink:href="#a8dQjZ5ym" opacity="1" fill-opacity="0" stroke="#000000" stroke-width="1" stroke-opacity="0"></use></g></g><g><use xlink:href="#bl4d4GXGQ" opacity="1" fill="#ffffff" fill-opacity="1"></use><g><use xlink:href="#bl4d4GXGQ" opacity="1" fill-opacity="0" stroke="#000000" stroke-width="1" stroke-opacity="0"></use></g></g></g></g></svg>