<?xml version="1.0" encoding="UTF-8" standalone="no"?>
<!DOCTYPE svg PUBLIC "-//W3C//DTD SVG 1.1//EN" "http://www.w3.org/Graphics/SVG/1.1/DTD/svg11.dtd">
<svg version="1.1" xmlns="http://www.w3.org/2000/svg" xmlns:xlink="http://www.w3.org/1999/xlink" preserveAspectRatio="xMidYMid meet" viewBox="0 0 640 640" width="640" height="640"><defs><path d="M638.84 640L638.84 639.97L639 639.97C639 499.14 639 420.9 639 405.25C639 290.43 614.28 201.97 480.04 201.97C415.51 201.97 372.2 237.39 354.52 270.96C354.4 270.96 353.77 270.96 352.65 270.96L352.65 212.69L225.37 212.69L225.37 639.97L357.91 639.97C357.91 513.03 357.91 442.5 357.91 428.4C357.91 372.69 368.47 318.83 437.45 318.83C505.43 318.83 506.44 382.4 506.44 431.97C506.44 445.84 506.44 515.18 506.44 640L638.84 640Z" id="f435G4thzu"></path><path d="M9.56 212.72L142.25 212.72L142.25 640L9.56 640L9.56 212.72Z" id="c1xyovgctc"></path><path d="M-1 76.85C-1 119.28 33.43 154.43 75.85 154.43C118.28 154.43 152.71 119.28 152.71 76.85C152.68 34.43 118.25 0 75.85 0C33.43 0 -1 34.43 -1 76.85Z" id="a7oiGr4v4"></path></defs><g><g><g><use xlink:href="#f435G4thzu" opacity="1" fill="#ffbd1b" fill-opacity="1"></use><g><use xlink:href="#f435G4thzu" opacity="1" fill-opacity="0" stroke="#000000" stroke-width="1" stroke-opacity="0"></use></g></g><g><use xlink:href="#c1xyovgctc" opacity="1" fill="#ffbd1b" fill-opacity="1"></use><g><use xlink:href="#c1xyovgctc" opacity="1" fill-opacity="0" stroke="#000000" stroke-width="1" stroke-opacity="0"></use></g></g><g><use xlink:href="#a7oiGr4v4" opacity="1" fill="#ffbd1b" fill-opacity="1"></use><g><use xlink:href="#a7oiGr4v4" opacity="1" fill-opacity="0" stroke="#000000" stroke-width="1" stroke-opacity="0"></use></g></g></g></g></svg>