<?xml version="1.0" encoding="UTF-8" standalone="no"?>
<!DOCTYPE svg PUBLIC "-//W3C//DTD SVG 1.1//EN" "http://www.w3.org/Graphics/SVG/1.1/DTD/svg11.dtd">
<svg version="1.1" xmlns="http://www.w3.org/2000/svg" xmlns:xlink="http://www.w3.org/1999/xlink" preserveAspectRatio="xMidYMid meet" viewBox="0 0 640 640" width="640" height="640"><defs><path d="M183.95 636.73C167.34 627.51 34.47 553.74 17.87 544.52C12.85 541.88 8.64 537.47 5.2 531.27C1.76 525.08 0 518.92 0 512.85C0 467.74 0 106.9 0 61.79C0 44.96 9.09 37.35 29.65 48.73C47.9 58.86 193.91 139.9 212.16 150.03C214.8 152.97 212.85 132.82 213.23 616.14C213.23 636.73 199.33 645.23 183.95 636.73ZM236.08 191.95L426.8 534.62L236.08 429.37L236.08 191.95ZM640 199.09C640 449.32 640 588.34 640 616.14C640 622.75 638.35 628.08 634.99 632.17C631.65 636.26 627.12 638.3 621.41 638.3C615.71 638.3 610.11 636.58 604.64 633.15C594.14 627.34 541.64 598.32 447.15 546.09L640 199.09ZM547.33 317.58C486.27 427.42 450.48 491.76 440 510.48C430.71 493.76 384.29 410.13 300.72 259.61C370.14 134.5 408.71 65 416.43 51.1C422.72 39.6 435.63 37.59 444.29 42.39C463.62 53.07 618.2 138.55 637.52 149.23C638.45 149.74 638.93 150.54 638.93 151.6C638.93 152.4 608.4 207.74 547.33 317.58Z" id="cDijn3V6v"></path></defs><g><g><g><use xlink:href="#cDijn3V6v" opacity="1" fill="#ffbd1b" fill-opacity="1"></use><g><use xlink:href="#cDijn3V6v" opacity="1" fill-opacity="0" stroke="#000000" stroke-width="1" stroke-opacity="0"></use></g></g></g></g></svg>