<?xml version="1.0" encoding="UTF-8" standalone="no"?>
<!DOCTYPE svg PUBLIC "-//W3C//DTD SVG 1.1//EN" "http://www.w3.org/Graphics/SVG/1.1/DTD/svg11.dtd">
<svg version="1.1" xmlns="http://www.w3.org/2000/svg" xmlns:xlink="http://www.w3.org/1999/xlink" preserveAspectRatio="xMidYMid meet" viewBox="0 0 640 640" width="640" height="640"><defs><path d="M413.5 0L11.93 28.24L49.83 567.14L86.08 564.59L86.08 99.77L526.16 99.77L526.16 597.92L570.23 602.67L628.07 65.55L416.51 42.77L413.5 0Z" id="crhhCbeIQ"></path><path d="M123.61 640L488.64 640L488.64 137.3L123.61 137.3L123.61 640ZM296.89 246.5C294.37 248.74 274.24 266.71 271.73 268.96C264.8 260.17 256.53 255.11 245.89 255.11C229.34 255.11 218.2 266.59 218.2 284.66C218.2 302.73 229.34 314.21 245.89 314.21C256.53 314.21 264.8 309.14 271.73 300.36C274.24 302.61 294.37 320.57 296.89 322.82C285.23 338.01 267 346.46 243.86 346.46C205.87 346.46 178.01 320.96 178.01 284.65C178.01 248.36 205.87 222.86 243.86 222.86C267 222.86 285.23 231.3 296.89 246.5ZM183.75 560.71L183.75 523.19L428.49 523.19L428.49 560.71L183.75 560.71ZM183.75 493.97L183.75 456.44L428.49 456.44L428.49 493.97L183.75 493.97ZM183.75 427.22L183.75 389.69L428.49 389.69L428.49 427.22L183.75 427.22ZM345.52 343.76L295.54 225.56L338.43 225.56L366.63 294.62L395.5 225.56L434.68 225.56L384.69 343.76L345.52 343.76Z" id="b54FbPkHwc"></path></defs><g><g><g><use xlink:href="#crhhCbeIQ" opacity="1" fill="#ffbd1b" fill-opacity="1"></use><g><use xlink:href="#crhhCbeIQ" opacity="1" fill-opacity="0" stroke="#000000" stroke-width="1" stroke-opacity="0"></use></g></g><g><use xlink:href="#b54FbPkHwc" opacity="1" fill="#ffbd1b" fill-opacity="1"></use><g><use xlink:href="#b54FbPkHwc" opacity="1" fill-opacity="0" stroke="#000000" stroke-width="1" stroke-opacity="0"></use></g></g></g></g></svg>