<?xml version="1.0" encoding="UTF-8" standalone="no"?>
<!DOCTYPE svg PUBLIC "-//W3C//DTD SVG 1.1//EN" "http://www.w3.org/Graphics/SVG/1.1/DTD/svg11.dtd">
<svg version="1.1" xmlns="http://www.w3.org/2000/svg" xmlns:xlink="http://www.w3.org/1999/xlink" preserveAspectRatio="xMidYMid meet" viewBox="0 0 640 640" width="640" height="640"><defs><path d="M519.15 272.42C510.16 179.51 433.23 106.67 340 106.67C328.96 106.67 320 115.82 320 127.11C320 159.81 320 421.44 320 454.14C320 465.42 328.96 474.58 340 474.58C360 474.58 520 474.58 540 474.58C595.17 474.58 640 428.77 640 372.38C640 316.05 595.17 270.18 540 270.18C532.88 270.18 525.89 270.97 519.15 272.42Z" id="c5kwkJJx5"></path><path d="M240 454.14C240 465.42 248.96 474.58 260 474.58C271.04 474.58 280 465.42 280 454.14C280 425.52 280 196.6 280 167.99C280 156.7 271.04 147.55 260 147.55C248.96 147.55 240 156.7 240 167.99C240 225.22 240 425.52 240 454.14Z" id="b1Xd8VaXe"></path><path d="M160 454.14C160 465.42 168.96 474.58 180 474.58C191.04 474.58 200 465.42 200 454.14C200 433.7 200 270.18 200 249.74C200 238.46 191.04 229.3 180 229.3C168.96 229.3 160 238.46 160 249.74C160 290.62 160 433.7 160 454.14Z" id="bwAcvlycP"></path><path d="M80 454.14C80 465.42 88.96 474.58 100 474.58C111.04 474.58 120 465.42 120 454.14C120 433.7 120 270.18 120 249.74C120 238.46 111.04 229.3 100 229.3C88.96 229.3 80 238.46 80 249.74C80 290.62 80 413.26 80 454.14Z" id="b2lFK6AVR3"></path><path d="M40 454.14C40 441.87 40 343.77 40 331.5C40 320.22 31.04 311.06 20 311.06C8.96 311.06 0 320.22 0 331.5C0 343.77 0 441.87 0 454.14C0 465.42 8.96 474.58 20 474.58C31.04 474.58 40 465.42 40 454.14Z" id="bN4lplAf"></path></defs><g><g><g><use xlink:href="#c5kwkJJx5" opacity="1" fill="#ffbd1b" fill-opacity="1"></use><g><use xlink:href="#c5kwkJJx5" opacity="1" fill-opacity="0" stroke="#000000" stroke-width="1" stroke-opacity="0"></use></g></g><g><use xlink:href="#b1Xd8VaXe" opacity="1" fill="#ffbd1b" fill-opacity="1"></use><g><use xlink:href="#b1Xd8VaXe" opacity="1" fill-opacity="0" stroke="#000000" stroke-width="1" stroke-opacity="0"></use></g></g><g><use xlink:href="#bwAcvlycP" opacity="1" fill="#ffbd1b" fill-opacity="1"></use><g><use xlink:href="#bwAcvlycP" opacity="1" fill-opacity="0" stroke="#000000" stroke-width="1" stroke-opacity="0"></use></g></g><g><use xlink:href="#b2lFK6AVR3" opacity="1" fill="#ffbd1b" fill-opacity="1"></use><g><use xlink:href="#b2lFK6AVR3" opacity="1" fill-opacity="0" stroke="#000000" stroke-width="1" stroke-opacity="0"></use></g></g><g><use xlink:href="#bN4lplAf" opacity="1" fill="#ffbd1b" fill-opacity="1"></use><g><use xlink:href="#bN4lplAf" opacity="1" fill-opacity="0" stroke="#000000" stroke-width="1" stroke-opacity="0"></use></g></g></g></g></svg>